# xmcd CD database file
#
# Track frame offsets:
#	187
#	26909
#	43064
#	63889
#	85734
#	106424
#	128269
#	151357
#	176842
#	193627
#
# Disc length: 2785 seconds
#
# Revision: 3
# Processed by: cddbd v1.5.2PL0 Copyright (c) Steve Scherf et al.
# Submitted via: CDex 1.70beta3
#
DISCID=7c0adf0a
DTITLE=House Of Lords - Demons Down
DYEAR=1992
DGENRE=Hard Rock
TTITLE0=O Father
TTITLE1=Demons Down
TTITLE2=What's Forever For
TTITLE3=Talkin' 'bout Love
TTITLE4=Spirit Of Love
TTITLE5=Down, Down, Down
TTITLE6=Metallic Blue
TTITLE7=Inside You
TTITLE8=Johnny's Got A Mind Of His Own
TTITLE9=Can't Fight Love
EXTD=YEAR: 1992
EXTT0=
EXTT1=
EXTT2=
EXTT3=
EXTT4=
EXTT5=
EXTT6=
EXTT7=
EXTT8=
EXTT9=
PLAYORDER=
